<?xml version="1.0" encoding="UTF-8" standalone="no"?>
<!DOCTYPE svg PUBLIC "-//W3C//DTD SVG 1.1//EN" "http://www.w3.org/Graphics/SVG/1.1/DTD/svg11.dtd">
<svg width="100%" height="100%" viewBox="0 0 728 200" version="1.1" xmlns="http://www.w3.org/2000/svg" xmlns:xlink="http://www.w3.org/1999/xlink" xml:space="preserve" xmlns:serif="http://www.serif.com/" style="fill-rule:evenodd;clip-rule:evenodd;stroke-linejoin:round;stroke-miterlimit:2;">
    <g transform="matrix(1,0,0,1,-11,-25)">
        <g id="Layer1" transform="matrix(1,0,0,1,-147.574,-375.001)">
            <g id="logo" transform="matrix(0.222222,0,0,0.222222,147.831,388.889)">
                <path d="M158,50C98.168,50 50,98.168 50,158L50,842C50,901.832 98.168,950 158,950L842,950C901.832,950 950,901.832 950,842L950,158C950,98.168 901.832,50 842,50L158,50ZM239.519,158.561L759.36,158.561C762.583,158.561 765.754,158.764 768.879,159.121L158,770C157.642,766.876 157.439,763.705 157.439,760.481L157.439,240.64C157.439,195.168 194.046,158.561 239.519,158.561ZM842,230L842,446L626,446L842,230ZM518,555.31L842,555.31L842,770C837.39,811.04 802.793,842.749 760.481,842.749L240.64,842.749C237.426,842.749 234.276,842.506 231.16,842.149L518,555.31Z" style="fill:rgb(0,255,0);fill-rule:nonzero;"/>
            </g>
            <g id="text">
                <g id="o" transform="matrix(1.01319,0,0,1.01319,58.1025,240.363)">
                    <path d="M337.446,257.136C337.446,242.552 339.627,230.313 343.989,220.417C347.244,213.125 351.688,206.582 357.319,200.788C362.951,194.994 369.119,190.697 375.825,187.897C384.744,184.121 395.031,182.233 406.684,182.233C427.778,182.233 444.656,188.776 457.319,201.862C469.982,214.948 476.313,233.145 476.313,256.452C476.313,279.564 470.031,297.647 457.466,310.7C444.9,323.754 428.104,330.28 407.075,330.28C385.786,330.28 368.859,323.786 356.294,310.798C343.729,297.81 337.446,279.922 337.446,257.136ZM367.231,256.159C367.231,272.37 370.975,284.658 378.462,293.024C385.949,301.39 395.454,305.573 406.977,305.573C418.501,305.573 427.957,301.423 435.346,293.122C442.736,284.821 446.43,272.37 446.43,255.769C446.43,239.362 442.833,227.123 435.639,219.05C428.445,210.977 418.891,206.94 406.977,206.94C395.063,206.94 385.46,211.026 378.169,219.196C370.877,227.367 367.231,239.688 367.231,256.159Z" style="fill:rgb(0,255,0);fill-rule:nonzero;"/>
                </g>
                <g id="z" transform="matrix(1.01319,0,0,1.01319,88.8703,240.363)">
                    <path d="M486.469,327.839L486.469,301.765L561.665,208.894L494.966,208.894L494.966,184.675L599.751,184.675L599.751,207.136L521.333,303.718L602.778,303.718L602.778,327.839L486.469,327.839Z" style="fill:rgb(0,255,0);fill-rule:nonzero;"/>
                </g>
                <g id="a" transform="matrix(1.01319,0,0,1.01319,126.168,240.363)">
                    <path d="M750.141,327.839L718.696,327.839L706.196,295.319L648.969,295.319L637.153,327.839L606.489,327.839L662.251,184.675L692.817,184.675L750.141,327.839ZM696.919,271.198L677.192,218.073L657.856,271.198L696.919,271.198Z" style="fill:rgb(0,255,0);fill-rule:nonzero;"/>
                </g>
            </g>
        </g>
    </g>
</svg>
