<?xml version="1.0" encoding="UTF-8" standalone="no"?>
<!-- Created with Inkscape (http://www.inkscape.org/) -->

<svg
   width="1000"
   version="1.1"
   id="svg5"
   inkscape:version="1.1.2 (b8e25be833, 2022-02-05)"
   viewBox="0 0 264.58331 264.58331"
   height="1000"
   sodipodi:docname="srmi62-bx.svg"
   xmlns:inkscape="http://www.inkscape.org/namespaces/inkscape"
   xmlns:sodipodi="http://sodipodi.sourceforge.net/DTD/sodipodi-0.dtd"
   xmlns="http://www.w3.org/2000/svg"
   xmlns:svg="http://www.w3.org/2000/svg"
   xmlns:rdf="http://www.w3.org/1999/02/22-rdf-syntax-ns#"
   xmlns:cc="http://creativecommons.org/ns#"
   xmlns:dc="http://purl.org/dc/elements/1.1/">
  <title
     id="title132">suryami62's Logo Box</title>
  <sodipodi:namedview
     inkscape:zoom="0.32126338"
     inkscape:cx="969.60942"
     inkscape:cy="421.77232"
     inkscape:window-width="1360"
     inkscape:window-height="745"
     inkscape:window-x="-8"
     inkscape:window-y="-8"
     inkscape:window-maximized="1"
     id="namedview136"
     pagecolor="#ffffff"
     bordercolor="#666666"
     borderopacity="1.0"
     inkscape:pageshadow="2"
     inkscape:pageopacity="0.0"
     inkscape:pagecheckerboard="0">
    <inkscape:grid
       id="grid134" />
  </sodipodi:namedview>
  <defs
     id="defs138" />
  <g
     inkscape:label="logo"
     id="g158">
    <g
       transform="scale(0.68658651,1.4564807)"
       id="g144">
      <path
         d="m 38.04482,173.87273 q -7.4134,-3.12143 -14.046443,-8.19376 -6.633043,-5.46251 -8.583938,-8.97412 0,-3.51161 1.170537,-4.68215 1.170537,-1.56071 6.633043,-1.17053 5.852685,0 18.728591,1.56071 4.682148,0 11.70537,-0.78035 7.023221,-0.78036 12.875906,-2.34108 6.242864,-1.56071 7.023222,-3.90179 1.950895,0 0.780358,-1.17054 -1.170537,-1.56071 -2.731253,-3.12143 -1.560716,0 -3.511611,-1.17053 -1.950895,-1.56072 -3.511611,-1.56072 0,-1.95089 -3.90179,-4.29197 -3.51161,-2.73125 -7.4134,-4.29197 -8.583938,-7.02322 -14.826802,-12.48573 -6.242863,-5.85268 -4.682148,-7.80357 0,-1.56072 0,-1.56072 0,-0.39018 0,-0.39018 -2.731252,0 -6.242863,-7.80358 -3.121432,-7.803579 -3.121432,-14.046443 0,-4.682148 2.731253,-11.70537 2.731253,-7.4134 7.4134,-15.21698 4.682148,-7.80358 9.754475,-12.875907 7.023222,-6.633042 17.558054,-14.046443 10.534833,-7.80358 20.679487,-13.656265 10.534832,-6.242863 17.558055,-8.1937583 7.02322,-2.7312529 12.87591,-2.7312529 6.24286,0 10.92501,2.7312529 3.90179,1.9508953 7.02322,5.8526843 3.51161,3.511611 5.85268,7.413401 2.73126,3.511611 3.51161,6.242864 0,4.682148 -0.78035,10.534833 -0.78036,5.462505 -2.34108,9.754474 -1.17053,4.291969 -3.90179,4.291969 0,0 -1.17053,0.390179 -0.78036,0 -0.78036,1.950895 0,3.90179 -5.85269,8.974117 -7.4134,5.072326 -12.8759,6.242863 -5.46251,0.780358 -6.63305,-4.291968 -1.17053,-1.560716 -1.56071,-2.731253 -0.39018,-1.170537 -1.9509,-1.170537 0,0 -1.17053,-1.170537 -1.17054,-1.170537 -1.17054,-3.90179 0,-1.560716 1.17054,-2.731253 1.17053,-1.560716 1.17053,-1.560716 1.9509,0 5.07233,-4.291969 3.12143,-4.682148 5.46251,-9.754474 2.73125,-5.462506 2.73125,-7.413401 0,-2.341074 -0.78036,-2.731253 -0.39018,-0.390179 -3.51161,-0.390179 -5.46251,2.341074 -13.266086,6.242864 -7.80358,3.90179 -14.826801,7.803579 -6.633043,3.511611 -9.754475,6.633043 -1.560716,2.731253 -1.950895,3.511611 -0.390179,0.390179 -1.950895,0.390179 0,-1.560716 -2.731253,1.560716 -2.341074,2.731253 -6.242864,7.80358 -3.51161,5.072327 -7.023221,10.144653 -3.121432,4.682148 -4.682148,7.023222 -0.780358,0.780358 -1.950895,4.682148 -0.780358,3.511611 -0.780358,6.633043 -1.560716,4.682148 0.390179,6.633042 1.950895,1.560717 8.583938,7.023227 13.656264,10.14465 21.459844,16.77769 7.80358,6.63304 11.705369,10.92501 3.90179,4.29197 4.682148,7.80358 7.023223,11.70537 4.291969,17.94824 -2.731253,6.24286 -13.266085,10.92501 -3.90179,1.95089 -12.875907,3.12143 -8.974117,1.17054 -18.338412,1.17054 -9.364296,0.39018 -14.826802,-0.39018 z"
         id="path140" />
      <path
         d="m 146.70949,160.21646 q -1.17053,0.39018 -3.90179,-0.39018 -2.73125,-0.78035 -5.4625,-1.95089 -2.73126,-1.17054 -3.51161,-1.9509 -1.56072,-1.56071 -3.12144,-4.68214 -1.17053,-3.12144 0,-8.97412 1.17054,-6.24286 7.80358,-15.99734 1.9509,-3.90179 4.68215,-11.70537 2.73126,-7.80358 5.46251,-16.387516 3.12143,-8.974116 5.4625,-15.997338 2.73126,-7.023222 3.90179,-9.754475 0.78036,-6.633042 -0.78035,-9.364295 -1.17054,-3.121432 -6.63305,-3.511611 -3.90179,0 -6.24286,-0.780358 -1.9509,-0.780358 -1.9509,-7.80358 0.78036,-5.462506 2.73126,-7.413401 2.34107,-2.341073 6.24286,-5.072326 3.90179,-1.950895 7.80358,-2.731253 4.29197,-0.780358 8.19376,-0.390179 3.90179,0.390179 6.24286,2.731253 2.73126,1.560716 3.51161,7.023221 0.78036,5.072327 0.78036,10.534833 0.39018,5.462506 0.78036,8.193759 3.90179,-3.121432 10.53483,-8.583938 7.02322,-5.852685 12.09555,-10.925012 6.24286,-4.291968 14.8268,-8.583937 8.58394,-4.682148 12.48573,-4.682148 4.29197,0 8.58394,2.341074 4.29197,1.950895 5.85268,5.072327 3.90179,6.633042 3.51161,11.705369 0,5.072327 -4.29197,10.534833 -3.90179,5.072327 -9.75447,7.023222 -5.46251,1.950895 -7.02322,1.950895 -2.34108,0 -5.85269,-3.511611 -3.51161,-3.511611 -3.90179,-5.852685 0,-1.170537 -5.07232,2.341074 -4.68215,3.121432 -10.53484,8.193758 -5.85268,4.682148 -9.75447,8.583938 -6.63304,8.193759 -14.04644,22.240207 -7.4134,14.04644 -17.55806,33.94557 -4.68215,9.75447 -6.63304,16.77769 -1.9509,6.63305 -5.46251,7.80358 z"
         id="path142" />
    </g>
    <g
       transform="matrix(0,-0.95567627,1.0463794,0,0,0)"
       id="g150">
      <path
         d="m -247.6402,170.31539 0.60243,8.09943 q 7.69782,-9.43818 20.81757,-9.43818 13.98993,0 19.21106,11.04468 7.63087,-11.04468 21.75469,-11.04468 11.781,0 17.53762,6.89456 5.75663,6.82762 5.75663,20.61675 v 46.25381 h -19.41188 v -46.18687 q 0,-6.15825 -2.40975,-8.96963 -2.40975,-2.87831 -8.50106,-2.87831 -8.70188,0 -12.04875,8.30025 l 0.0669,49.73456 h -19.34494 v -46.11994 q 0,-6.29212 -2.47669,-9.1035 -2.47669,-2.81137 -8.43412,-2.81137 -8.23332,0 -11.91488,6.82762 v 51.20719 h -19.34493 v -72.42637 z"
         id="path146" />
      <path
         d="M -134.02812,242.74176 H -153.44 v -72.42637 h 19.41188 z m -20.54982,-91.16887 q 0,-4.35094 2.87832,-7.16232 2.94525,-2.81137 7.96556,-2.81137 4.95337,0 7.89862,2.81137 2.94525,2.81138 2.94525,7.16232 0,4.41787 -3.01218,7.22925 -2.94525,2.81137 -7.83169,2.81137 -4.88644,0 -7.89863,-2.81137 -2.94525,-2.81138 -2.94525,-7.22925 z"
         id="path148" />
    </g>
    <g
       transform="scale(0.7834997,1.2763247)"
       id="g156">
      <path
         d="m 269.94897,89.046136 -2.28663,2.166282 H 236.3716 l -2.28663,-2.166282 6.73954,-6.739544 h 22.38491 z m 4.45291,-4.452913 -2.16628,2.166282 -6.73954,-6.739544 V 57.635047 l 6.73954,-6.739544 2.16628,2.286631 z m 0.12035,-76.3012657 -8.90583,9.0261747 h -24.79189 l -6.73954,-6.739544 2.28663,-2.2866307 z M 264.41291,45.2391 l 4.45292,4.573262 -4.45292,4.452913 h -24.79189 l -4.45291,-4.452913 4.45291,-4.573262 z m -25.87503,34.780861 -6.73954,6.739544 -2.16629,-2.166282 V 53.182134 l 2.16629,-2.286631 6.73954,6.739544 z m 0,-38.030284 -6.73954,6.619195 -2.16629,-2.166282 V 15.031501 l 2.16629,-2.286631 6.73954,6.739544 z"
         id="path152" />
      <path
         d="m 324.18636,46.44259 -2.28664,2.166282 -6.73954,-6.619195 V 19.484414 l 6.73954,-6.739544 2.28664,2.286631 z m -4.45292,-35.864002 -6.73954,6.739544 h -24.67155 l -9.02617,-9.0261747 h 38.15063 z m -31.41109,69.441373 -6.73954,6.739544 -2.28663,-2.166282 V 53.182134 l 2.28663,-2.286631 6.73954,6.739544 z m 35.86401,11.192457 h -38.15064 l -2.28663,-2.166282 6.73955,-6.739544 h 24.79189 z m -5.53606,-41.400056 -4.57326,4.452913 h -24.67155 l -4.57326,-4.452913 4.57326,-4.573262 h 24.67155 z"
         id="path154" />
    </g>
  </g>
  <metadata
     id="metadata160">
    <rdf:RDF>
      <cc:Work
         rdf:about="">
        <dc:title>suryami62's Logo Box</dc:title>
        <dc:date>2023</dc:date>
        <dc:creator>
          <cc:Agent>
            <dc:title>Surya Ramadhan</dc:title>
          </cc:Agent>
        </dc:creator>
      </cc:Work>
    </rdf:RDF>
  </metadata>
</svg>
