<?xml version="1.0" encoding="UTF-8" standalone="no"?>
<svg
   width="200"
   height="200"
   viewBox="0 0 200 200"
   version="1.1"
   id="svg78"
   sodipodi:docname="undraw_docusaurus_tree.svg"
   inkscape:version="1.1.2 (b8e25be833, 2022-02-05)"
   xmlns:inkscape="http://www.inkscape.org/namespaces/inkscape"
   xmlns:sodipodi="http://sodipodi.sourceforge.net/DTD/sodipodi-0.dtd"
   xmlns="http://www.w3.org/2000/svg"
   xmlns:svg="http://www.w3.org/2000/svg"
   xmlns:rdf="http://www.w3.org/1999/02/22-rdf-syntax-ns#"
   xmlns:cc="http://creativecommons.org/ns#"
   xmlns:dc="http://purl.org/dc/elements/1.1/">
  <defs
     id="defs82" />
  <sodipodi:namedview
     id="namedview80"
     pagecolor="#ffffff"
     bordercolor="#666666"
     borderopacity="1.0"
     inkscape:pageshadow="2"
     inkscape:pageopacity="0.0"
     inkscape:pagecheckerboard="0"
     showgrid="true"
     inkscape:zoom="3.2337858"
     inkscape:cx="141.78428"
     inkscape:cy="85.503498"
     inkscape:window-width="1360"
     inkscape:window-height="745"
     inkscape:window-x="-8"
     inkscape:window-y="-8"
     inkscape:window-maximized="1"
     inkscape:current-layer="svg78">
    <inkscape:grid
       type="xygrid"
       id="grid1766" />
  </sodipodi:namedview>
  <title
     id="title2">Focus on What Matters</title>
  <g
     id="g1785"
     inkscape:label="laptop"
     transform="translate(4.1535072,39.658688)">
    <circle
       cx="57.478947"
       cy="58.471889"
       fill="#f2f2f2"
       id="circle4"
       r="57.150723"
       style="stroke-width:0.178039" />
    <ellipse
       cx="99.852386"
       cy="114.46536"
       rx="91.512375"
       ry="4.8960938"
       fill="#3f3d56"
       id="ellipse6"
       style="stroke-width:0.178039" />
    <ellipse
       cx="99.674355"
       cy="112.95202"
       rx="81.898232"
       ry="3.9168718"
       opacity="0.2"
       id="ellipse8"
       style="stroke-width:0.178039" />
    <rect
       x="23.651419"
       y="28.472214"
       width="149.55331"
       height="8.9019823"
       fill="#3f3d56"
       id="rect10"
       style="stroke-width:0.178039" />
    <path
       d="m 23.651418,109.71703 a 3.858135,3.858135 0 0 0 3.858136,3.85813 H 169.34657 a 3.858135,3.858135 0 0 0 3.85814,-3.85813 V 32.923204 H 23.651418 Z"
       fill="#3f3d56"
       id="path12"
       style="fill:#4d4d4d;stroke-width:0.178039" />
    <path
       d="M 169.34657,22.240826 H 27.509554 a 3.858135,3.858135 0 0 0 -3.858136,3.858137 v 6.824241 H 173.20471 v -6.824241 a 3.858135,3.858135 0 0 0 -3.85814,-3.858137 z"
       fill="#3f3d56"
       id="path14"
       style="stroke-width:0.178039" />
    <path
       d="M 169.34657,22.240826 H 27.509554 a 3.858135,3.858135 0 0 0 -3.858136,3.858137 v 6.824241 H 173.20471 v -6.824241 a 3.858135,3.858135 0 0 0 -3.85814,-3.858137 z"
       opacity="0.2"
       id="path16"
       style="stroke-width:0.178039" />
    <circle
       cx="32.553402"
       cy="27.582016"
       fill="#3f3d56"
       id="circle18"
       r="2.3145154"
       style="stroke-width:0.178039" />
    <circle
       cx="38.962826"
       cy="27.582016"
       fill="#3f3d56"
       id="circle20"
       r="2.3145154"
       style="stroke-width:0.178039" />
    <circle
       cx="45.372253"
       cy="27.582016"
       fill="#3f3d56"
       id="circle22"
       r="2.3145154"
       style="stroke-width:0.178039" />
    <rect
       x="30.238886"
       y="39.332634"
       width="59.999359"
       height="68.723305"
       rx="0.9498505"
       fill="#606060"
       id="rect24"
       style="fill:#cccccc;stroke-width:0.178039" />
    <rect
       x="107.68613"
       y="49.836971"
       width="50.563259"
       height="3.9168718"
       rx="0.97501278"
       fill="#2e8555"
       id="rect26"
       style="fill:#000000;stroke-width:0.178039" />
    <rect
       x="95.935509"
       y="64.080147"
       width="74.064491"
       height="2.6705947"
       rx="0.97501278"
       fill="#2e8555"
       id="rect28"
       style="fill:#000000;stroke-width:0.178039" />
    <rect
       x="95.935509"
       y="71.913879"
       width="74.064491"
       height="2.6705947"
       rx="0.97501278"
       fill="#2e8555"
       id="rect30"
       style="fill:#000000;stroke-width:0.178039" />
    <rect
       x="95.935509"
       y="79.747635"
       width="74.064491"
       height="2.6705947"
       rx="0.97501278"
       fill="#2e8555"
       id="rect32"
       style="fill:#000000;stroke-width:0.178039" />
    <rect
       x="95.935509"
       y="87.581375"
       width="74.064491"
       height="2.6705947"
       rx="0.97501278"
       fill="#2e8555"
       id="rect34"
       style="fill:#000000;stroke-width:0.178039" />
    <rect
       x="154.33252"
       y="99.688072"
       width="15.667487"
       height="4.6290307"
       rx="1.2511843"
       fill="#3ecc5f"
       id="rect36"
       style="stroke-width:0.178039" />
  </g>
  <metadata
     id="metadata84">
    <rdf:RDF>
      <cc:Work
         rdf:about="">
        <dc:title>Focus on What Matters</dc:title>
      </cc:Work>
    </rdf:RDF>
  </metadata>
  <g
     inkscape:label="Layer 1"
     id="layer1"
     transform="matrix(0.21424535,0,0,0.21424535,36.163364,83.489026)">
    <path
       id="rect8278"
       style="fill:#66ff66;fill-opacity:1;stroke-width:0;stroke-linecap:round;stroke-linejoin:round;paint-order:markers stroke fill"
       d="m 41.804168,13.229169 c -15.830553,0 -28.575001,12.744449 -28.575001,28.575002 V 222.77918 c 0,15.83055 12.744448,28.57499 28.575001,28.57499 H 222.77918 c 15.83055,0 28.57499,-12.74444 28.57499,-28.57499 V 41.804171 c 0,-15.830553 -12.74444,-28.575002 -28.57499,-28.575002 z M 63.372619,41.952535 H 200.914 c 0.85274,0 1.69185,0.05366 2.51846,0.148361 L 187.33251,58.200845 41.804168,203.72919 c -0.09472,-0.82658 -0.148363,-1.6657 -0.148363,-2.51846 V 63.66935 c 0,-12.031219 9.685596,-21.716815 21.716814,-21.716815 z M 222.77918,60.854171 v 57.150009 h -57.15 l 28.57499,-28.575007 z m -85.72501,86.071509 h 85.72501 v 56.80351 c -1.21985,10.85855 -10.37349,19.24813 -21.56845,19.24813 H 63.669347 c -0.850439,0 -1.68388,-0.0644 -2.50822,-0.15861 z"
       inkscape:export-filename="D:\Surya Ramadhan\Proyek\oza\static\img\oza.png"
       inkscape:export-xdpi="96"
       inkscape:export-ydpi="96" />
  </g>
  <g
     id="g2464"
     transform="matrix(0.78590908,0,0,0.78590908,61.74707,-220.00502)">
    <path
       style="fill:#1a1a1a"
       d="m 84.804,368.927 c -0.675,-0.638 -0.729,-0.988 -0.837,-1.849 -0.916,2.073 -2.066,4.609 -2.906,6.671 -0.346,0.926 -0.076,2.21 0.563,2.847 0.161,0.162 0.327,0.327 0.488,0.489 l -2.266,3.317 c -0.213,0.212 -0.259,0.53 -0.135,0.788 0.032,0.066 0.076,0.132 0.135,0.189 l 0.294,0.269 c 0.057,0.059 0.122,0.104 0.19,0.136 0.256,0.123 0.536,0.031 0.787,-0.136 0.775,-0.512 3.32,-2.236 3.32,-2.236 0.164,0.165 0.327,0.327 0.492,0.49 0.636,0.635 1.922,0.908 2.847,0.561 2.062,-0.839 4.837,-1.965 7.044,-2.908 -0.753,0 -1.414,-0.161 -2.02,-0.647 z"
       id="path2454" />
    <path
       style="fill:#1a1a1a"
       d="m 85.758,362.343 c -1.226,1.226 -1.481,3.054 -0.772,4.534 0.191,0.397 0.444,0.77 0.772,1.098 l 7.795,7.79 c 0.327,0.331 0.701,0.586 1.096,0.774 1.481,0.709 3.307,0.456 4.534,-0.774 l 21.36,-21.36 -13.423,-13.424 z"
       id="path2456" />
    <rect
       x="114.511"
       y="335.29999"
       transform="matrix(0.7071,-0.7071,0.7071,0.7071,-209.6084,183.5178)"
       style="fill:#1a1a1a"
       width="4.4429998"
       height="18.983999"
       id="rect2458" />
    <path
       style="fill:#1a1a1a"
       d="m 155.686,324.203 c -0.319,-0.319 -0.742,-0.495 -1.197,-0.495 -0.45,0 -0.876,0.176 -1.193,0.495 l -21.285,21.283 c -0.659,0.659 -0.659,1.731 0,2.391 l 1.029,1.027 c 0.319,0.319 0.742,0.495 1.198,0.495 0.451,0 0.876,-0.175 1.192,-0.495 l 21.285,-21.281 c 0.658,-0.661 0.658,-1.731 0,-2.391 z"
       id="path2460" />
    <path
       style="fill:#1a1a1a"
       d="m 161.09,300.435 c -2.04,-2.042 -5.346,-2.042 -7.388,-10e-4 -1.441,1.44 -1.842,3.505 -1.251,5.318 l -3.932,3.93 -2.235,-2.234 c -1.554,-1.556 -4.075,-1.556 -5.63,0 l -27.73,27.731 13.423,13.424 27.73,-27.732 c 1.557,-1.553 1.557,-4.076 0,-5.632 l -2.233,-2.232 3.931,-3.933 c 1.812,0.592 3.877,0.19 5.32,-1.249 2.038,-2.042 2.038,-5.35 -0.005,-7.39 z"
       id="path2462" />
  </g>
</svg>
